<mxfile>
    <diagram id="8jtwp23gU4bW0mw1dv8f" name="Page-1">
        <mxGraphModel grid="1" gridSize="10" guides="1" tooltips="1" connect="1" arrows="1" page="1" fold="1" pageScale="1" pageWidth="827" pageHeight="1169" math="0" shadow="0">
            <root>
                <mxCell id="0"/>
                <mxCell id="1" parent="0"/>
                <mxCell id="11" value="БД" style="shape=umlFrame;whiteSpace=wrap;html=1;width=120;height=30;boundedLbl=1;verticalAlign=middle;align=left;spacingLeft=5;" vertex="1" parent="1">
                    <mxGeometry x="204" y="60" width="420" height="880" as="geometry"/>
                </mxCell>
                <mxCell id="103" value="" style="fontStyle=1;align=center;verticalAlign=top;childLayout=stackLayout;horizontal=1;horizontalStack=0;resizeParent=1;resizeParentMax=0;resizeLast=0;marginBottom=0;" vertex="1" parent="1">
                    <mxGeometry x="310" y="560" width="160" height="138" as="geometry"/>
                </mxCell>
                <mxCell id="104" value="UseCase1" style="html=1;align=left;spacingLeft=4;verticalAlign=middle;strokeColor=none;fillColor=none;fontStyle=1" vertex="1" parent="103">
                    <mxGeometry width="160" height="30" as="geometry"/>
                </mxCell>
                <mxCell id="105" value="" style="shape=ellipse;" vertex="1" parent="104">
                    <mxGeometry x="1" width="20" height="16" relative="1" as="geometry">
                        <mxPoint x="-25" y="7" as="offset"/>
                    </mxGeometry>
                </mxCell>
                <mxCell id="106" value="" style="line;strokeWidth=1;fillColor=none;align=left;verticalAlign=middle;spacingTop=-1;spacingLeft=3;spacingRight=3;rotatable=0;labelPosition=right;points=[];portConstraint=eastwest;" vertex="1" parent="103">
                    <mxGeometry y="30" width="160" height="8" as="geometry"/>
                </mxCell>
                <mxCell id="107" value="extension points" style="html=1;align=center;spacingLeft=4;verticalAlign=top;strokeColor=none;fillColor=none;" vertex="1" parent="103">
                    <mxGeometry y="38" width="160" height="25" as="geometry"/>
                </mxCell>
                <mxCell id="108" value="Extension point 1" style="html=1;align=left;spacingLeft=4;verticalAlign=top;strokeColor=none;fillColor=none;" vertex="1" parent="103">
                    <mxGeometry y="63" width="160" height="25" as="geometry"/>
                </mxCell>
                <mxCell id="109" value="Extension point 1" style="html=1;align=left;spacingLeft=4;verticalAlign=top;strokeColor=none;fillColor=none;" vertex="1" parent="103">
                    <mxGeometry y="88" width="160" height="25" as="geometry"/>
                </mxCell>
                <mxCell id="110" value="Extension point 1" style="html=1;align=left;spacingLeft=4;verticalAlign=top;strokeColor=none;fillColor=none;" vertex="1" parent="103">
                    <mxGeometry y="113" width="160" height="25" as="geometry"/>
                </mxCell>
                <mxCell id="119" value="" style="fontStyle=1;align=center;verticalAlign=top;childLayout=stackLayout;horizontal=1;horizontalStack=0;resizeParent=1;resizeParentMax=0;resizeLast=0;marginBottom=0;" vertex="1" parent="1">
                    <mxGeometry x="310" y="780" width="160" height="138" as="geometry"/>
                </mxCell>
                <mxCell id="120" value="UseCase1" style="html=1;align=left;spacingLeft=4;verticalAlign=middle;strokeColor=none;fillColor=none;fontStyle=1" vertex="1" parent="119">
                    <mxGeometry width="160" height="30" as="geometry"/>
                </mxCell>
                <mxCell id="121" value="" style="shape=ellipse;" vertex="1" parent="120">
                    <mxGeometry x="1" width="20" height="16" relative="1" as="geometry">
                        <mxPoint x="-25" y="7" as="offset"/>
                    </mxGeometry>
                </mxCell>
                <mxCell id="122" value="" style="line;strokeWidth=1;fillColor=none;align=left;verticalAlign=middle;spacingTop=-1;spacingLeft=3;spacingRight=3;rotatable=0;labelPosition=right;points=[];portConstraint=eastwest;" vertex="1" parent="119">
                    <mxGeometry y="30" width="160" height="8" as="geometry"/>
                </mxCell>
                <mxCell id="123" value="extension points" style="html=1;align=center;spacingLeft=4;verticalAlign=top;strokeColor=none;fillColor=none;" vertex="1" parent="119">
                    <mxGeometry y="38" width="160" height="25" as="geometry"/>
                </mxCell>
                <mxCell id="124" value="Extension point 1" style="html=1;align=left;spacingLeft=4;verticalAlign=top;strokeColor=none;fillColor=none;" vertex="1" parent="119">
                    <mxGeometry y="63" width="160" height="25" as="geometry"/>
                </mxCell>
                <mxCell id="125" value="Extension point 1" style="html=1;align=left;spacingLeft=4;verticalAlign=top;strokeColor=none;fillColor=none;" vertex="1" parent="119">
                    <mxGeometry y="88" width="160" height="25" as="geometry"/>
                </mxCell>
                <mxCell id="126" value="Extension point 1" style="html=1;align=left;spacingLeft=4;verticalAlign=top;strokeColor=none;fillColor=none;" vertex="1" parent="119">
                    <mxGeometry y="113" width="160" height="25" as="geometry"/>
                </mxCell>
                <mxCell id="276" value="" style="fontStyle=1;align=center;verticalAlign=top;childLayout=stackLayout;horizontal=1;horizontalStack=0;resizeParent=1;resizeParentMax=0;resizeLast=0;marginBottom=0;fillColor=#fa6800;strokeColor=#C73500;fontColor=#ffffff;" vertex="1" parent="1">
                    <mxGeometry x="1250" y="50" width="160" height="283" as="geometry"/>
                </mxCell>
                <mxCell id="277" value="&lt;b&gt;&lt;font color=&quot;#000000&quot; style=&quot;font-size: 18px&quot;&gt;users&lt;/font&gt;&lt;/b&gt;" style="html=1;align=center;spacingLeft=4;verticalAlign=middle;strokeColor=none;fillColor=none;" vertex="1" parent="276">
                    <mxGeometry width="160" height="25" as="geometry"/>
                </mxCell>
                <mxCell id="278" value="&lt;b&gt;id : int&lt;/b&gt;" style="html=1;align=left;spacingLeft=4;verticalAlign=top;strokeColor=#d79b00;fillColor=#ffcd28;gradientColor=#ffa500;fontColor=#000000;" vertex="1" parent="276">
                    <mxGeometry y="25" width="160" height="25" as="geometry"/>
                </mxCell>
                <mxCell id="279" value="tg_unid : int" style="html=1;align=left;spacingLeft=4;verticalAlign=top;strokeColor=#B09500;fillColor=#e3c800;fontFamily=Helvetica;fontStyle=0;fontColor=#000000;" vertex="1" parent="276">
                    <mxGeometry y="50" width="160" height="25" as="geometry"/>
                </mxCell>
                <mxCell id="280" value="tg_unid : int" style="html=1;align=left;spacingLeft=4;verticalAlign=top;strokeColor=#B09500;fillColor=#e3c800;fontColor=#000000;" vertex="1" parent="276">
                    <mxGeometry y="75" width="160" height="25" as="geometry"/>
                </mxCell>
                <mxCell id="288" value="&lt;b&gt;id : int&lt;/b&gt;" style="html=1;align=left;spacingLeft=4;verticalAlign=top;strokeColor=#d79b00;fillColor=#ffcd28;gradientColor=#ffa500;fontColor=#000000;" vertex="1" parent="276">
                    <mxGeometry y="100" width="160" height="25" as="geometry"/>
                </mxCell>
                <mxCell id="281" value="tg_username : string" style="html=1;align=left;spacingLeft=4;verticalAlign=top;strokeColor=#B09500;fillColor=#e3c800;fontColor=#000000;" vertex="1" parent="276">
                    <mxGeometry y="125" width="160" height="25" as="geometry"/>
                </mxCell>
                <mxCell id="282" value="overall_rating : int" style="html=1;align=left;spacingLeft=4;verticalAlign=top;strokeColor=#B09500;fillColor=#e3c800;fontColor=#000000;" vertex="1" parent="276">
                    <mxGeometry y="150" width="160" height="25" as="geometry"/>
                </mxCell>
                <mxCell id="283" value="position_group : int" style="html=1;align=left;spacingLeft=4;verticalAlign=top;strokeColor=#B09500;fillColor=#e3c800;fontColor=#000000;" vertex="1" parent="276">
                    <mxGeometry y="175" width="160" height="27" as="geometry"/>
                </mxCell>
                <mxCell id="284" value="position_repeat : int" style="html=1;align=left;spacingLeft=4;verticalAlign=top;strokeColor=#B09500;fillColor=#e3c800;fontColor=#000000;" vertex="1" parent="276">
                    <mxGeometry y="202" width="160" height="27" as="geometry"/>
                </mxCell>
                <mxCell id="285" value="position_repeat : int" style="html=1;align=left;spacingLeft=4;verticalAlign=top;strokeColor=#B09500;fillColor=#e3c800;fontColor=#000000;" vertex="1" parent="276">
                    <mxGeometry y="229" width="160" height="27" as="geometry"/>
                </mxCell>
                <mxCell id="286" value="position_repeat : int" style="html=1;align=left;spacingLeft=4;verticalAlign=top;strokeColor=#B09500;fillColor=#e3c800;fontColor=#000000;" vertex="1" parent="276">
                    <mxGeometry y="256" width="160" height="27" as="geometry"/>
                </mxCell>
            </root>
        </mxGraphModel>
    </diagram>
    <diagram id="mMOoAf3u5umtuAadbSAm" name="Privet">
        <mxGraphModel dx="526" dy="758" grid="1" gridSize="10" guides="1" tooltips="1" connect="1" arrows="1" fold="1" page="1" pageScale="1" pageWidth="827" pageHeight="1169" math="0" shadow="0">
            <root>
                <mxCell id="2KkATuwurSIrN1-nt9m6-0"/>
                <mxCell id="2KkATuwurSIrN1-nt9m6-1" parent="2KkATuwurSIrN1-nt9m6-0"/>
                <mxCell id="lMcsM1zYGMLvZkKmnvtS-0" value="" style="fontStyle=1;align=center;verticalAlign=top;childLayout=stackLayout;horizontal=1;horizontalStack=0;resizeParent=1;resizeParentMax=0;resizeLast=0;marginBottom=0;fillColor=#fa6800;strokeColor=#C73500;fontColor=#ffffff;" vertex="1" parent="2KkATuwurSIrN1-nt9m6-1">
                    <mxGeometry x="1250" y="50" width="160" height="283" as="geometry"/>
                </mxCell>
                <mxCell id="lMcsM1zYGMLvZkKmnvtS-1" value="&lt;b&gt;&lt;font color=&quot;#000000&quot; style=&quot;font-size: 18px&quot;&gt;users&lt;/font&gt;&lt;/b&gt;" style="html=1;align=center;spacingLeft=4;verticalAlign=middle;strokeColor=none;fillColor=none;" vertex="1" parent="lMcsM1zYGMLvZkKmnvtS-0">
                    <mxGeometry width="160" height="25" as="geometry"/>
                </mxCell>
                <mxCell id="lMcsM1zYGMLvZkKmnvtS-2" value="&lt;b&gt;id : int&lt;/b&gt;" style="html=1;align=left;spacingLeft=4;verticalAlign=top;strokeColor=#d79b00;fillColor=#ffcd28;gradientColor=#ffa500;fontColor=#000000;" vertex="1" parent="lMcsM1zYGMLvZkKmnvtS-0">
                    <mxGeometry y="25" width="160" height="25" as="geometry"/>
                </mxCell>
                <mxCell id="lMcsM1zYGMLvZkKmnvtS-3" value="tg_unid : int" style="html=1;align=left;spacingLeft=4;verticalAlign=top;strokeColor=#B09500;fillColor=#e3c800;fontFamily=Helvetica;fontStyle=0;fontColor=#000000;" vertex="1" parent="lMcsM1zYGMLvZkKmnvtS-0">
                    <mxGeometry y="50" width="160" height="25" as="geometry"/>
                </mxCell>
                <mxCell id="lMcsM1zYGMLvZkKmnvtS-4" value="tg_unid : int" style="html=1;align=left;spacingLeft=4;verticalAlign=top;strokeColor=#B09500;fillColor=#e3c800;fontColor=#000000;" vertex="1" parent="lMcsM1zYGMLvZkKmnvtS-0">
                    <mxGeometry y="75" width="160" height="25" as="geometry"/>
                </mxCell>
                <mxCell id="lMcsM1zYGMLvZkKmnvtS-5" value="&lt;b&gt;id : int&lt;/b&gt;" style="html=1;align=left;spacingLeft=4;verticalAlign=top;strokeColor=#d79b00;fillColor=#ffcd28;gradientColor=#ffa500;fontColor=#000000;" vertex="1" parent="lMcsM1zYGMLvZkKmnvtS-0">
                    <mxGeometry y="100" width="160" height="25" as="geometry"/>
                </mxCell>
                <mxCell id="lMcsM1zYGMLvZkKmnvtS-6" value="tg_username : string" style="html=1;align=left;spacingLeft=4;verticalAlign=top;strokeColor=#B09500;fillColor=#e3c800;fontColor=#000000;" vertex="1" parent="lMcsM1zYGMLvZkKmnvtS-0">
                    <mxGeometry y="125" width="160" height="25" as="geometry"/>
                </mxCell>
                <mxCell id="lMcsM1zYGMLvZkKmnvtS-7" value="overall_rating : int" style="html=1;align=left;spacingLeft=4;verticalAlign=top;strokeColor=#B09500;fillColor=#e3c800;fontColor=#000000;" vertex="1" parent="lMcsM1zYGMLvZkKmnvtS-0">
                    <mxGeometry y="150" width="160" height="25" as="geometry"/>
                </mxCell>
                <mxCell id="lMcsM1zYGMLvZkKmnvtS-8" value="position_group : int" style="html=1;align=left;spacingLeft=4;verticalAlign=top;strokeColor=#B09500;fillColor=#e3c800;fontColor=#000000;" vertex="1" parent="lMcsM1zYGMLvZkKmnvtS-0">
                    <mxGeometry y="175" width="160" height="27" as="geometry"/>
                </mxCell>
                <mxCell id="lMcsM1zYGMLvZkKmnvtS-9" value="position_repeat : int" style="html=1;align=left;spacingLeft=4;verticalAlign=top;strokeColor=#B09500;fillColor=#e3c800;fontColor=#000000;" vertex="1" parent="lMcsM1zYGMLvZkKmnvtS-0">
                    <mxGeometry y="202" width="160" height="27" as="geometry"/>
                </mxCell>
                <mxCell id="lMcsM1zYGMLvZkKmnvtS-10" value="position_repeat : int" style="html=1;align=left;spacingLeft=4;verticalAlign=top;strokeColor=#B09500;fillColor=#e3c800;fontColor=#000000;" vertex="1" parent="lMcsM1zYGMLvZkKmnvtS-0">
                    <mxGeometry y="229" width="160" height="27" as="geometry"/>
                </mxCell>
                <mxCell id="lMcsM1zYGMLvZkKmnvtS-11" value="position_repeat : int" style="html=1;align=left;spacingLeft=4;verticalAlign=top;strokeColor=#B09500;fillColor=#e3c800;fontColor=#000000;" vertex="1" parent="lMcsM1zYGMLvZkKmnvtS-0">
                    <mxGeometry y="256" width="160" height="27" as="geometry"/>
                </mxCell>
            </root>
        </mxGraphModel>
    </diagram>
</mxfile>